<?xml version="1.0" encoding="UTF-8"?>
<svg version="1.1" width="102px" height="102px" viewBox="0 0 102.0 102.0" xmlns="http://www.w3.org/2000/svg"
     xmlns:xlink="http://www.w3.org/1999/xlink">
    <defs>
        <clipPath id="i0">
            <path d="M50,0 C77.6142375,0 100,22.3857625 100,50 C100,77.6142375 77.6142375,100 50,100 C22.3857625,100 0,77.6142375 0,50 C0,22.3857625 22.3857625,0 50,0 Z"></path>
        </clipPath>
    </defs>
    <g transform="translate(1.0 1.0)"  >
        <g clip-path="url(#i0)">
            <polygon points="0,0 100,0 100,100 0,100 0,0" stroke="none" fill="#000000"></polygon>
        </g>
        <path  d="M50,100 C77.6142375,100 100,77.6142375 100,50 C100,22.3857625 77.6142375,0 50,0 C22.3857625,0 0,22.3857625 0,50 C0,77.6142375 22.3857625,100 50,100 Z"
              stroke="#969696" stroke-width="1" fill="none" stroke-miterlimit="10"></path>
        <g transform="translate(14.787565575051303 28.22879751918703)">
            <g transform="translate(0.0 13.999999999999883)">
                <path d="M0,0 L34.5562264,29.1619425 L70,0" stroke="#FFFFFF" stroke-width="8" fill="none"
                      stroke-miterlimit="10"></path>
            </g>
            <g transform="translate(17.5 6.9999999999998845)">
                <path d="M0,0 L17.2781132,14.5809713 L35,0" stroke="#FFFFFF" stroke-width="5" fill="none"
                      stroke-miterlimit="10"></path>
            </g>
            <g transform="translate(26.25 -1.1368683772161603e-13)">
                <path d="M0,0 L8.63905659,7.29048563 L17.5,0" stroke="#FFFFFF" stroke-width="3" fill="none"
                      stroke-miterlimit="10"></path>
            </g>
        </g>
    </g>
</svg>