<?xml version="1.0" encoding="UTF-8"?><svg version="1.1" width="560px" height="760px" viewBox="0 0 560.0 760.0" xmlns="http://www.w3.org/2000/svg" xmlns:xlink="http://www.w3.org/1999/xlink"><defs><filter id="i0" x="-16.4285714%" y="-11.8421053%" filterUnits="userSpaceOnUse" width="122.142857%" height="116.315789%"><feGaussianBlur stdDeviation="15" in="SourceAlpha" result="i1"></feGaussianBlur><feOffset dx="0" dy="2" in="i1" result="i2"></feOffset><feColorMatrix values="0 0 0 0.547491027557776 0 0 0 0 0.05732286995922542 0 0 0 0 0.771982497063236 0 0 0 0 0.5 0" type="matrix" in="i2"></feColorMatrix></filter><clipPath id="i3"><path d="M484.652686,4.00699056 C489.541574,6.62159695 493.378403,10.4584256 495.993009,15.3473144 C498.607616,20.2362033 500,25.0854969 500,38.458278 L500,661.541722 C500,674.914503 498.607616,679.763797 495.993009,684.652686 C493.378403,689.541574 489.541574,693.378403 484.652686,695.993009 C479.763797,698.607616 474.914503,700 461.541722,700 L38.458278,700 C25.0854969,700 20.2362033,698.607616 15.3473144,695.993009 C10.4584256,693.378403 6.62159695,689.541574 4.00699056,684.652686 C1.43140814,679.836765 0.041835977,675.059267 0.000929964975,662.134835 L1.03584031e-15,38.458278 C-6.01853049e-16,25.0854969 1.39238417,20.2362033 4.00699056,15.3473144 C6.62159695,10.4584256 10.4584256,6.62159695 15.3473144,4.00699056 C20.1632348,1.43140814 24.940733,0.041835977 37.8651645,0.000929964975 L461.541722,1.55376046e-15 C474.914503,-9.02779573e-16 479.763797,1.39238417 484.652686,4.00699056 Z"></path></clipPath><filter id="i4" x="-8.44036697%" y="-6.17449664%" filterUnits="userSpaceOnUse" width="108.440367%" height="106.174497%"><feGaussianBlur stdDeviation="5.5" in="SourceAlpha" result="i5"></feGaussianBlur><feOffset dx="0" dy="1" in="i5" result="i6"></feOffset><feColorMatrix values="0 0 0 0.7018826742408568 0 0 0 0 0.09359478465603717 0 0 0 0 0.8834990349368773 0 0 0 0 0.5 0" type="matrix" in="i6"></feColorMatrix></filter><clipPath id="i7"><path d="M169.5,0 C263.112265,0 339,75.8877349 339,169.5 C339,263.112265 263.112265,339 169.5,339 C75.8877349,339 0,263.112265 0,169.5 C0,75.8877349 75.8877349,0 169.5,0 Z"></path></clipPath></defs><g transform="translate(30.0 28.0)"><path d="M38.458278,-1.55376046e-15 L461.541722,1.55376046e-15 C474.914503,-9.02779573e-16 479.763797,1.39238417 484.652686,4.00699056 C489.541574,6.62159695 493.378403,10.4584256 495.993009,15.3473144 C498.607616,20.2362033 500,25.0854969 500,38.458278 L500,661.541722 C500,674.914503 498.607616,679.763797 495.993009,684.652686 C493.378403,689.541574 489.541574,693.378403 484.652686,695.993009 C479.763797,698.607616 474.914503,700 461.541722,700 L38.458278,700 C25.0854969,700 20.2362033,698.607616 15.3473144,695.993009 C10.4584256,693.378403 6.62159695,689.541574 4.00699056,684.652686 C1.39238417,679.763797 6.01853049e-16,674.914503 -1.03584031e-15,661.541722 L1.03584031e-15,38.458278 C-6.01853049e-16,25.0854969 1.39238417,20.2362033 4.00699056,15.3473144 C6.62159695,10.4584256 10.4584256,6.62159695 15.3473144,4.00699056 C20.2362033,1.39238417 25.0854969,9.02779573e-16 38.458278,-1.55376046e-15 Z" stroke="none" fill="#000000" filter="url(#i0)"></path><g clip-path="url(#i3)"><polygon points="-1.03584031e-15,-1.55376046e-15 500,-1.55376046e-15 500,700 -1.03584031e-15,700 -1.03584031e-15,-1.55376046e-15" stroke="none" fill="#0F0A0A"></polygon><path d="M511,-13 L511,710 L-12,710 L-12,-13 L511,-13 Z M462.134835,0.000929964975 L37.8651645,0.000929964975 C24.940733,0.041835977 20.1632348,1.43140814 15.3473144,4.00699056 C10.4584256,6.62159695 6.62159695,10.4584256 4.00699056,15.3473144 C1.39238417,20.2362033 -6.01853049e-16,25.0854969 1.03584031e-15,38.458278 L0.000929964975,662.134835 C0.041835977,675.059267 1.43140814,679.836765 4.00699056,684.652686 C6.62159695,689.541574 10.4584256,693.378403 15.3473144,695.993009 C20.2362033,698.607616 25.0854969,700 38.458278,700 L461.541722,700 C474.914503,700 479.763797,698.607616 484.652686,695.993009 C489.541574,693.378403 493.378403,689.541574 495.993009,684.652686 C498.607616,679.763797 500,674.914503 500,661.541722 L500,38.458278 C500,25.0854969 498.607616,20.2362033 495.993009,15.3473144 C493.378403,10.4584256 489.541574,6.62159695 484.652686,4.00699056 C479.763797,1.39238417 474.914503,-9.02779573e-16 461.541722,1.55376046e-15 Z" stroke="none" fill="#000000" filter="url(#i4)"></path></g><g transform="translate(80.0 181.0)"><g clip-path="url(#i7)"><polygon points="0,0 339,0 339,339 0,339 0,0" stroke="none" fill="#000000"></polygon></g><path d="M169.5,339 C263.112265,339 339,263.112265 339,169.5 C339,75.8877349 263.112265,0 169.5,0 C75.8877349,0 0,75.8877349 0,169.5 C0,263.112265 75.8877349,339 169.5,339 Z" stroke="#969696" stroke-width="2" fill="none" stroke-miterlimit="10"></path></g><g transform="translate(160.0 299.0)"><g transform="translate(0.0 37.375)"><path d="M0,0 L95.770113,79.625 L194,0" stroke="#FFFFFF" stroke-width="8" fill="none" stroke-miterlimit="10"></path></g><g transform="translate(47.27731092436974 17.875)"><path d="M0,0 L48.287452,40.625 L97.8151261,0" stroke="#FFFFFF" stroke-width="5" fill="none" stroke-miterlimit="10"></path></g><g transform="translate(71.73109243697479 0.0)"><path d="M0,0 L23.3389351,19.5 L47.2773109,0" stroke="#FFFFFF" stroke-width="3" fill="none" stroke-miterlimit="10"></path></g></g></g></svg>